<svg width="34" height="34" viewBox="0 0 34 34" fill="none" xmlns="http://www.w3.org/2000/svg">
<path fill-rule="evenodd" clip-rule="evenodd" d="M10.2599 0.238219C12.0028 0.157371 12.5585 0.139404 16.998 0.139404C21.4376 0.139404 21.9932 0.158868 23.7346 0.238219C25.4759 0.31757 26.6646 0.597544 27.7046 1.00328C28.7937 1.418 29.7818 2.06629 30.599 2.90471C31.431 3.72667 32.0729 4.7208 32.4829 5.81974C32.8871 6.86777 33.1634 8.06552 33.2437 9.81723C33.3239 11.5764 33.3417 12.1364 33.3417 16.6085C33.3417 21.0821 33.3224 21.642 33.2437 23.3982C33.1649 25.1499 32.8871 26.3477 32.4829 27.3957C32.0728 28.4948 31.4299 29.4906 30.599 30.3137C29.7818 31.1522 28.7937 31.799 27.7046 32.2122C26.6646 32.6194 25.4759 32.8979 23.7376 32.9787C21.9932 33.0596 21.4376 33.0775 16.998 33.0775C12.5585 33.0775 12.0028 33.0581 10.2599 32.9787C8.52157 32.8994 7.33293 32.6194 6.29288 32.2122C5.20219 31.7989 4.21399 31.1511 3.39707 30.3137C2.56559 29.4913 1.92215 28.496 1.5116 27.3972C1.10895 26.3492 0.832592 25.1514 0.752359 23.3997C0.672126 21.6405 0.654297 21.0806 0.654297 16.6085C0.654297 12.1349 0.673612 11.5749 0.752359 9.82022C0.831106 8.06552 1.10895 6.86777 1.5116 5.81974C1.92275 4.72092 2.56669 3.72564 3.39855 2.90321C4.21431 2.06554 5.20152 1.41717 6.29139 1.00328C7.33145 0.597544 8.52008 0.319067 10.2585 0.238219H10.2599ZM23.6024 3.20265C21.8788 3.1233 21.3618 3.10683 16.998 3.10683C12.6342 3.10683 12.1172 3.1233 10.3937 3.20265C8.79941 3.27601 7.93468 3.54401 7.35819 3.77009C6.59598 4.06952 6.05069 4.42436 5.47866 5.00078C4.93642 5.53235 4.51911 6.17949 4.25734 6.89472C4.03299 7.47563 3.76703 8.34699 3.69423 9.95347C3.61548 11.6902 3.59914 12.2112 3.59914 16.6085C3.59914 21.0057 3.61548 21.5267 3.69423 23.2635C3.76703 24.87 4.03299 25.7413 4.25734 26.3222C4.51884 27.0364 4.93635 27.6847 5.47866 28.2162C6.00612 28.7627 6.64947 29.1834 7.35819 29.4469C7.93468 29.6729 8.79941 29.9409 10.3937 30.0143C12.1172 30.0937 12.6328 30.1101 16.998 30.1101C21.3633 30.1101 21.8788 30.0937 23.6024 30.0143C25.1966 29.9409 26.0613 29.6729 26.6378 29.4469C27.4 29.1474 27.9453 28.7926 28.5174 28.2162C29.0597 27.6847 29.4772 27.0364 29.7387 26.3222C29.963 25.7413 30.229 24.87 30.3018 23.2635C30.3805 21.5267 30.3969 21.0057 30.3969 16.6085C30.3969 12.2112 30.3805 11.6902 30.3018 9.95347C30.229 8.34699 29.963 7.47563 29.7387 6.89472C29.4415 6.12666 29.0894 5.57719 28.5174 5.00078C27.9898 4.45441 27.3476 4.03391 26.6378 3.77009C26.0613 3.54401 25.1966 3.27601 23.6024 3.20265ZM14.9105 21.6854C16.0763 22.1745 17.3745 22.2405 18.5832 21.8722C19.792 21.5039 20.8364 20.7241 21.538 19.6661C22.2396 18.6081 22.555 17.3374 22.4301 16.0711C22.3053 14.8049 21.7481 13.6215 20.8536 12.7233C20.2834 12.1491 19.594 11.7094 18.8349 11.4359C18.0759 11.1624 17.2661 11.0619 16.4639 11.1417C15.6616 11.2214 14.8869 11.4794 14.1955 11.897C13.5041 12.3147 12.9132 12.8816 12.4653 13.557C12.0174 14.2324 11.7237 14.9994 11.6054 15.8029C11.487 16.6064 11.5469 17.4264 11.7807 18.2038C12.0146 18.9811 12.4165 19.6966 12.9577 20.2986C13.4989 20.9007 14.1658 21.3743 14.9105 21.6854ZM11.0578 10.6227C11.8379 9.83666 12.764 9.21312 13.7832 8.78771C14.8024 8.36229 15.8948 8.14333 16.998 8.14333C18.1012 8.14333 19.1936 8.36229 20.2128 8.78771C21.232 9.21312 22.1581 9.83666 22.9382 10.6227C23.7183 11.4088 24.3371 12.342 24.7593 13.369C25.1814 14.396 25.3987 15.4968 25.3987 16.6085C25.3987 17.7201 25.1814 18.8209 24.7593 19.8479C24.3371 20.875 23.7183 21.8082 22.9382 22.5942C21.3628 24.1818 19.226 25.0736 16.998 25.0736C14.77 25.0736 12.6333 24.1818 11.0578 22.5942C9.48238 21.0067 8.5973 18.8536 8.5973 16.6085C8.5973 14.3634 9.48238 12.2102 11.0578 10.6227ZM27.2619 9.40401C27.4552 9.22025 27.6099 8.99929 27.717 8.75419C27.824 8.50909 27.8812 8.24484 27.885 7.97708C27.8889 7.70933 27.8394 7.44351 27.7395 7.19537C27.6396 6.94723 27.4913 6.72181 27.3034 6.53246C27.1155 6.34311 26.8918 6.19367 26.6455 6.093C26.3993 5.99233 26.1355 5.94247 25.8698 5.94637C25.6041 5.95028 25.3418 6.00786 25.0986 6.11573C24.8554 6.22359 24.6361 6.37953 24.4537 6.57432C24.0991 6.95315 23.9049 7.45635 23.9124 7.97708C23.92 8.49782 24.1286 8.99509 24.4941 9.36335C24.8595 9.7316 25.353 9.94184 25.8698 9.94943C26.3866 9.95702 26.8859 9.76137 27.2619 9.40401Z" fill="white"/>
</svg>
