<svg width="34" height="34" viewBox="0 0 34 34" fill="none" xmlns="http://www.w3.org/2000/svg">
<path fill-rule="evenodd" clip-rule="evenodd" d="M0.765625 2.89124C0.765625 2.16141 1.05334 1.46147 1.56548 0.945401C2.07762 0.429332 2.77224 0.139408 3.49651 0.139408H30.7192C31.0781 0.138817 31.4336 0.209571 31.7654 0.347617C32.0972 0.485663 32.3986 0.688292 32.6526 0.943901C32.9065 1.19951 33.1079 1.50308 33.2453 1.83723C33.3826 2.17139 33.4532 2.52956 33.4531 2.89124V30.3227C33.4534 30.6845 33.383 31.0428 33.2459 31.3771C33.1087 31.7114 32.9075 32.0152 32.6537 32.271C32.3999 32.5269 32.0986 32.7298 31.7669 32.8682C31.4352 33.0066 31.0797 33.0777 30.7207 33.0775H3.49651C3.13776 33.0775 2.78253 33.0063 2.4511 32.8679C2.11968 32.7295 1.81856 32.5267 1.56496 32.271C1.31135 32.0153 1.11023 31.7118 0.973075 31.3778C0.835923 31.0437 0.76543 30.6857 0.765625 30.3242V2.89124ZM13.7039 12.6978H18.1301V14.9376C18.769 13.65 20.4033 12.4912 22.8594 12.4912C27.5678 12.4912 28.6837 15.0559 28.6837 19.7616V28.4782H23.9187V20.8335C23.9187 18.1536 23.2798 16.6414 21.6573 16.6414C19.4064 16.6414 18.4703 18.2719 18.4703 20.8335V28.4782H13.7039V12.6978ZM5.53205 28.2731H10.2985V12.4912H5.53205V28.2716V28.2731ZM10.9804 7.34388C10.9894 7.75511 10.9168 8.16402 10.7668 8.54659C10.6169 8.92916 10.3926 9.2777 10.1071 9.57174C9.8217 9.86578 9.48083 10.0994 9.10457 10.2589C8.7283 10.4184 8.32421 10.5006 7.916 10.5006C7.50779 10.5006 7.1037 10.4184 6.72743 10.2589C6.35117 10.0994 6.01031 9.86578 5.72486 9.57174C5.43941 9.2777 5.21512 8.92916 5.06515 8.54659C4.91519 8.16402 4.84257 7.75511 4.85155 7.34388C4.86919 6.53667 5.1998 5.76852 5.77257 5.20393C6.34535 4.63933 7.11475 4.32318 7.916 4.32318C8.71725 4.32318 9.48665 4.63933 10.0594 5.20393C10.6322 5.76852 10.9628 6.53667 10.9804 7.34388Z" fill="white"/>
</svg>
