<svg width="116" height="45" viewBox="0 0 116 45" fill="none" xmlns="http://www.w3.org/2000/svg">
<path d="M30.4473 20.4799H23.5461C23.256 20.4799 23.0367 20.7497 23.0917 21.0405C23.1748 21.4801 23.2905 21.9292 23.4447 22.3856C24.1382 24.4385 25.3564 25.8956 26.6108 26.9149C28.212 28.2162 29.8718 28.8054 30.5751 29.0125C30.7729 29.0708 30.9096 29.2551 30.9096 29.4654V32.8391C30.9096 33.13 30.6543 33.3527 30.3732 33.3053C26.3365 32.6251 22.8153 30.2819 20.6782 26.9149C20.218 26.1896 19.8217 25.4171 19.4985 24.6033C18.9926 23.3306 18.7162 22.085 18.599 20.9047C18.575 20.6635 18.3767 20.4799 18.1393 20.4799H11.9148C11.6595 20.4799 11.4526 20.2686 11.4526 20.0079V17.672C11.4526 17.4113 11.6595 17.1999 11.9148 17.1999H18.3193C18.5418 17.1999 18.7333 17.0381 18.7736 16.8147C18.7997 16.6697 18.8274 16.5273 18.8565 16.3876C18.902 16.1692 19.0904 16.013 19.3091 16.013H22.7875C23.0886 16.013 23.3089 16.302 23.2356 16.6003C23.2346 16.6042 23.2336 16.6082 23.2327 16.6122C23.1597 16.9105 23.3798 17.1999 23.681 17.1999H30.4473C30.7026 17.1999 30.9096 17.4113 30.9096 17.672V20.0079C30.9096 20.2686 30.7026 20.4799 30.4473 20.4799Z" fill="white"/>
<path fill-rule="evenodd" clip-rule="evenodd" d="M23.2327 16.6122L23.2356 16.6003C23.3089 16.302 23.0886 16.013 22.7875 16.013H19.3091C19.0904 16.013 18.902 16.1692 18.8565 16.3876C18.8274 16.5273 18.7997 16.6697 18.7736 16.8147C18.7333 17.0381 18.5418 17.1999 18.3193 17.1999H11.9148C11.6595 17.1999 11.4526 17.4113 11.4526 17.672V20.0079C11.4526 20.2686 11.6595 20.4799 11.9148 20.4799H18.1393C18.3767 20.4799 18.575 20.6635 18.599 20.9047C18.7162 22.085 18.9926 23.3306 19.4985 24.6033C19.8217 25.4171 20.218 26.1896 20.6782 26.9149C22.8153 30.2819 26.3365 32.6251 30.3732 33.3053C30.6543 33.3527 30.9096 33.13 30.9096 32.8391V29.4654C30.9096 29.2551 30.7729 29.0708 30.5751 29.0125C29.8718 28.8054 28.212 28.2162 26.6108 26.9149C25.3564 25.8956 24.1382 24.4385 23.4447 22.3856C23.2905 21.9292 23.1748 21.4801 23.0917 21.0405C23.0367 20.7497 23.256 20.4799 23.5461 20.4799H30.4473C30.7026 20.4799 30.9096 20.2686 30.9096 20.0079V17.672C30.9096 17.4113 30.7026 17.1999 30.4473 17.1999H23.681C23.3798 17.1999 23.1597 16.9105 23.2327 16.6122ZM23.3365 22.4237C23.1805 21.962 23.0634 21.5075 22.9793 21.0627C22.9106 20.6993 23.1845 20.3631 23.5461 20.3631H30.4473C30.6394 20.3631 30.7952 20.204 30.7952 20.0079V17.672C30.7952 17.4758 30.6394 17.3168 30.4473 17.3168H23.681C23.305 17.3168 23.0307 16.9556 23.1216 16.5839L23.1246 16.5718C23.1798 16.3472 23.014 16.1299 22.7875 16.1299H19.3091C19.1446 16.1299 19.0028 16.2474 18.9685 16.4119C18.9396 16.5506 18.9121 16.692 18.8861 16.8359C18.8358 17.1151 18.5966 17.3168 18.3193 17.3168H11.9148C11.7227 17.3168 11.567 17.4758 11.567 17.672V20.0079C11.567 20.204 11.7227 20.3631 11.9148 20.3631H18.1393C18.4356 20.3631 18.6829 20.5922 18.7128 20.8929C18.8291 22.063 19.103 23.2977 19.6045 24.5593C19.925 25.3662 20.3179 26.1321 20.7742 26.8513C22.8934 30.19 26.386 32.515 30.3919 33.19C30.6027 33.2255 30.7952 33.0583 30.7952 32.8391V29.4654C30.7952 29.3075 30.6926 29.1687 30.5434 29.1248C29.832 28.9154 28.1567 28.3206 26.5395 27.0063C25.2716 25.9761 24.0384 24.5015 23.3365 22.4237Z" fill="white"/>
<path d="M22.9551 45C19.9815 45 17.096 44.4049 14.3788 43.2312C11.755 42.0979 9.39893 40.4757 7.37601 38.4099C5.35309 36.3441 3.7647 33.938 2.6549 31.2586C1.5056 28.4837 0.922852 25.5369 0.922852 22.5002C0.922852 19.4635 1.5056 16.5166 2.6549 13.7416C3.76467 11.0621 5.35309 8.656 7.37598 6.59015C9.3989 4.52426 11.755 2.90217 14.3787 1.76885C17.096 0.595134 19.9815 0 22.9551 0C25.2303 0 27.467 0.351741 29.6138 1.04626C29.9623 1.15898 30.1503 1.54402 30.0293 1.89622L29.4292 3.64424C29.3138 3.98048 28.9582 4.16326 28.6253 4.0566C26.7975 3.47103 24.8932 3.17455 22.9551 3.17455C11.3385 3.17455 2.13306 13.9195 4.3678 26.1885C5.65494 33.2551 12.4227 40.1668 19.3424 41.4817C31.3567 43.7647 41.8788 34.3637 41.8788 22.5002C41.8788 20.5156 41.5867 18.5649 41.0097 16.6921C40.905 16.3523 41.0838 15.989 41.4129 15.8709L43.1241 15.2567C43.4689 15.1329 43.8461 15.3247 43.9568 15.6804C44.6409 17.8796 44.9874 20.1705 44.9874 22.5002C44.9874 25.5369 44.4047 28.4837 43.2554 31.2586C42.1457 33.938 40.5573 36.3441 38.5344 38.4099C36.5116 40.4757 34.1555 42.0979 31.5317 43.2312C28.8144 44.4049 25.9289 45 22.9551 45Z" fill="white"/>
<path fill-rule="evenodd" clip-rule="evenodd" d="M14.4234 43.1235C17.1264 44.2911 19.9967 44.8831 22.9551 44.8831C25.9137 44.8831 28.7841 44.2911 31.4871 43.1235C34.0972 41.9961 36.441 40.3824 38.4535 38.3272C40.466 36.272 42.046 33.8785 43.15 31.213C44.2932 28.4527 44.8729 25.5214 44.8729 22.5002C44.8729 20.1824 44.5283 17.9035 43.8477 15.7158C43.7566 15.423 43.4461 15.265 43.1621 15.367L41.4509 15.9812C41.1798 16.0785 41.0328 16.3775 41.1189 16.657C41.6994 18.5412 41.9933 20.5038 41.9933 22.5002C41.9933 34.4355 31.4075 43.8933 19.3214 41.5966C15.8342 40.934 12.3924 38.8632 9.66196 36.0746C6.93155 33.2861 4.90395 29.7712 4.25528 26.2099C2.0072 13.8676 11.2683 3.05767 22.9551 3.05767C24.9047 3.05767 26.8206 3.35592 28.6596 3.94508C28.9334 4.0328 29.2261 3.88251 29.3212 3.60557L29.9213 1.85755C30.0209 1.56747 29.866 1.25045 29.5793 1.15769C27.4437 0.466816 25.2187 0.116883 22.9551 0.116883C19.9967 0.116883 17.1264 0.708927 14.4233 1.8765C11.8132 3.00393 9.46945 4.61751 7.45692 6.6728C5.4444 8.72805 3.86432 11.1216 2.76031 13.7872C1.61703 16.5476 1.0373 19.479 1.0373 22.5002C1.0373 25.5214 1.61702 28.4527 2.76031 31.213C3.86434 33.8785 5.4444 36.272 7.45694 38.3272C9.46948 40.3825 11.8132 41.9961 14.4234 43.1235ZM14.3788 43.2312C17.096 44.4049 19.9815 45 22.9551 45C25.9289 45 28.8144 44.4049 31.5317 43.2312C34.1555 42.0979 36.5116 40.4757 38.5344 38.4099C40.5573 36.3441 42.1457 33.938 43.2554 31.2586C44.4047 28.4837 44.9874 25.5369 44.9874 22.5002C44.9874 20.1705 44.6409 17.8796 43.9568 15.6804C43.8461 15.3247 43.4689 15.1329 43.1241 15.2567L41.4129 15.8709C41.0838 15.989 40.905 16.3523 41.0097 16.6921C41.5867 18.5649 41.8788 20.5156 41.8788 22.5002C41.8788 34.3637 31.3567 43.7647 19.3424 41.4817C12.4227 40.1668 5.65494 33.2551 4.3678 26.1885C2.13306 13.9195 11.3385 3.17455 22.9551 3.17455C24.8932 3.17455 26.7975 3.47103 28.6253 4.0566C28.9582 4.16326 29.3138 3.98048 29.4292 3.64424L30.0293 1.89622C30.1503 1.54402 29.9623 1.15898 29.6138 1.04626C27.467 0.351741 25.2303 0 22.9551 0C19.9815 0 17.096 0.595134 14.3787 1.76885C11.755 2.90217 9.3989 4.52426 7.37598 6.59015C5.35309 8.656 3.76467 11.0621 2.6549 13.7416C1.5056 16.5166 0.922852 19.4635 0.922852 22.5002C0.922852 25.5369 1.5056 28.4837 2.6549 31.2586C3.7647 33.938 5.35309 36.3441 7.37601 38.4099C9.39893 40.4757 11.755 42.0979 14.3788 43.2312Z" fill="white"/>
<path d="M32.086 7.99982C32.2447 8.16187 32.4034 8.21286 32.7165 8.21286L36.1499 8.23143C36.1817 8.23143 36.2087 8.23143 36.2225 8.24981C36.236 8.26365 36.2405 8.29151 36.2405 8.31937L36.254 11.8303C36.2587 12.1499 36.3086 12.3119 36.4673 12.474C36.6805 12.6963 36.9799 12.6593 37.2021 12.437C37.3201 12.3165 37.4153 12.1175 37.5014 11.9321L40.9712 4.28988C41.1526 3.90096 41.1299 3.61362 40.9441 3.42371C40.7624 3.23854 40.4813 3.21541 40.1004 3.40058L32.6167 6.94393C32.4351 7.03187 32.2403 7.1291 32.1222 7.24965C31.9045 7.47652 31.8683 7.7775 32.086 7.99982Z" fill="white"/>
<path fill-rule="evenodd" clip-rule="evenodd" d="M32.7171 8.09597L36.1499 8.11455L36.1527 8.11454C36.1662 8.11452 36.1903 8.11447 36.2133 8.11871C36.2388 8.12342 36.2782 8.13594 36.3088 8.17292C36.3331 8.20051 36.3432 8.23204 36.348 8.25255C36.3534 8.27627 36.3549 8.29974 36.3549 8.31912L36.3685 11.8286C36.3708 11.9835 36.3841 12.0904 36.4115 12.1742C36.4379 12.2551 36.4794 12.321 36.5482 12.3913L36.549 12.3922C36.633 12.4797 36.7286 12.5124 36.8233 12.5056C36.9204 12.4987 37.0261 12.4493 37.1216 12.3539C37.2226 12.2505 37.3096 12.0724 37.3978 11.8825L40.8679 4.23963C41.0394 3.87185 40.9996 3.64591 40.8633 3.50645M40.8633 3.50645C40.7314 3.37212 40.5105 3.33067 40.1496 3.50612L40.1486 3.50663L32.6657 7.04953C32.4797 7.13967 32.3048 7.22871 32.2035 7.33188C32.1099 7.42959 32.0618 7.53649 32.055 7.63473C32.0484 7.73057 32.0802 7.82876 32.1669 7.91727C32.2357 7.9876 32.3002 8.02967 32.379 8.05603C32.4608 8.08339 32.5653 8.09597 32.7171 8.09597M32.086 7.99982C31.8683 7.7775 31.9045 7.47652 32.1222 7.24965C32.2403 7.1291 32.4351 7.03187 32.6167 6.94393L40.1004 3.40058C40.4813 3.21541 40.7624 3.23854 40.9441 3.42371C41.1299 3.61362 41.1526 3.90096 40.9712 4.28988L37.5014 11.9321C37.4153 12.1175 37.3201 12.3165 37.2021 12.437C36.9799 12.6593 36.6805 12.6963 36.4673 12.474C36.3086 12.3119 36.2587 12.1499 36.254 11.8303L36.2405 8.31937C36.2405 8.29151 36.236 8.26365 36.2225 8.24981C36.2087 8.23143 36.1817 8.23143 36.1499 8.23143L32.7165 8.21286C32.4034 8.21286 32.2447 8.16187 32.086 7.99982Z" fill="white"/>
<path d="M46.9503 16.7383V12.5915H45.7886V9.6807H46.9503L47.6713 6.94937H51.4569L50.7759 9.60095V9.6807H53.8804V12.5915H50.836V16.3396C50.836 16.7915 50.9228 17.1503 51.0963 17.4161C51.2699 17.6687 51.6505 17.7949 52.238 17.7949H53.8804V20.7057H50.6757C49.4206 20.7057 48.4858 20.3801 47.8716 19.7288C47.2574 19.0642 46.9503 18.0674 46.9503 16.7383Z" fill="white"/>
<path d="M58.8352 15.3427V20.5063H54.9495V11.5149L54.4888 9.6807H58.3745L58.7951 11.3354C59.0755 10.7905 59.416 10.4117 59.8166 10.199C60.3374 9.91994 60.8848 9.76044 61.459 9.72057C61.7928 9.69399 62.0866 9.6807 62.3403 9.6807C62.6074 9.6674 62.821 9.66076 62.9812 9.66076C63.3151 9.66076 63.7157 9.6674 64.183 9.6807V12.5715H61.9397C61.3522 12.5715 60.8381 12.6845 60.3975 12.9104C59.9568 13.1364 59.6363 13.3557 59.4361 13.5684C59.2358 13.7677 59.0822 14.0203 58.9754 14.3259C58.8819 14.6184 58.8352 14.9573 58.8352 15.3427Z" fill="white"/>
<path d="M64.793 8.84335V6.1519H68.6787V8.84335H64.793ZM64.793 20.5063V9.6807H68.6787V20.5063H64.793Z" fill="white"/>
<path d="M77.3797 20.8851C76.5518 20.8851 75.6972 20.6592 74.8159 20.2073C74.3352 19.9813 73.9413 19.6889 73.6342 19.3301V24.0351H69.7485V11.5149L69.2878 9.6807H73.1735L73.5941 11.3155C73.7277 11.1294 73.8745 10.95 74.0348 10.7772C74.9962 9.79367 76.0778 9.3019 77.2795 9.3019C77.3196 9.3019 77.353 9.3019 77.3797 9.3019C79.5161 9.34177 80.9783 9.86013 81.7661 10.857C82.5539 11.8405 82.9478 13.256 82.9478 15.1035C82.9478 16.2864 82.7609 17.3896 82.387 18.413C82.0131 19.4231 81.4523 20.0877 80.7046 20.4066C79.9568 20.7256 78.8485 20.8851 77.3797 20.8851ZM76.6586 17.7949C77.6334 17.7949 78.3411 17.569 78.7817 17.1171C79.2224 16.6519 79.4427 15.9807 79.4427 15.1035C79.4427 14.213 79.2224 13.5418 78.7817 13.0899C78.3411 12.6247 77.6334 12.3921 76.6586 12.3921C75.8307 12.3921 75.1164 12.6247 74.5155 13.0899C73.928 13.5418 73.6342 14.213 73.6342 15.1035C73.6342 15.9807 73.928 16.6519 74.5155 17.1171C75.1164 17.569 75.8307 17.7949 76.6586 17.7949Z" fill="white"/>
<path d="M53.8804 36.2649C53.0525 36.2649 52.198 36.0389 51.3167 35.587C50.836 35.3611 50.442 35.0687 50.1349 34.7098V39.4149H46.2492V26.8946L45.7886 25.0604H49.6743L50.0949 26.6953C50.2284 26.5092 50.3753 26.3297 50.5355 26.157C51.4969 25.1734 52.5785 24.6816 53.7803 24.6816C53.8203 24.6816 53.8537 24.6816 53.8804 24.6816C56.0169 24.7215 57.479 25.2399 58.2668 26.2367C59.0547 27.2203 59.4486 28.6358 59.4486 30.4832C59.4486 31.6661 59.2616 32.7693 58.8878 33.7927C58.5139 34.8028 57.953 35.4674 57.2053 35.7864C56.4575 36.1054 55.3492 36.2649 53.8804 36.2649ZM53.1594 33.1747C54.1341 33.1747 54.8418 32.9487 55.2825 32.4968C55.7231 32.0316 55.9434 31.3604 55.9434 30.4832C55.9434 29.5927 55.7231 28.9215 55.2825 28.4696C54.8418 28.0044 54.1341 27.7718 53.1594 27.7718C52.3315 27.7718 51.6171 28.0044 51.0162 28.4696C50.4287 28.9215 50.1349 29.5927 50.1349 30.4832C50.1349 31.3604 50.4287 32.0316 51.0162 32.4968C51.6171 32.9487 52.3315 33.1747 53.1594 33.1747Z" fill="white"/>
<path d="M60.0438 24.2231V21.5316H63.9295V24.2231H60.0438ZM60.0438 35.8861V25.0604H63.9295V35.8861H60.0438Z" fill="white"/>
<path d="M77.8382 29.0677H74.0927C73.9324 28.5494 73.6787 28.2038 73.3316 28.031C72.9844 27.8582 72.3234 27.7718 71.3487 27.7718C70.1202 27.7718 69.3123 28.0044 68.9251 28.4696C68.5512 28.9215 68.3643 29.5927 68.3643 30.4832C68.3643 31.3604 68.5579 32.0316 68.9451 32.4968C69.3457 32.9487 70.1803 33.1747 71.4488 33.1747C72.3568 33.1747 72.9844 33.0883 73.3316 32.9155C73.6787 32.7294 73.9525 32.4636 74.1528 32.118H77.8982C77.6846 33.487 77.0771 34.5237 76.0756 35.2282C75.0741 35.9193 73.5052 36.2649 71.3687 36.2649C69.6996 36.2649 68.3643 36.0323 67.3628 35.5671C66.3747 35.0886 65.6537 34.4174 65.1997 33.5535C64.759 32.6896 64.5387 31.6661 64.5387 30.4832C64.5387 29.2472 64.7657 28.1972 65.2197 27.3332C65.6737 26.4693 66.3947 25.8114 67.3829 25.3595C68.3843 24.9076 69.7063 24.6816 71.3487 24.6816C73.0445 24.6816 74.2529 24.8411 74.974 25.1601C75.695 25.4791 76.3226 25.9642 76.8567 26.6155C77.4042 27.2668 77.7313 28.0842 77.8382 29.0677Z" fill="white"/>
<path d="M78.5005 35.8861V21.5316H82.3862V29.2272L86.5724 25.0604H91.2392L86.1918 30.0845L92.0203 35.8861H86.8327L82.3862 31.4601V35.8861H78.5005Z" fill="white"/>
<path d="M95.9406 31.3006C96.0474 31.819 96.2678 32.231 96.6016 32.5367C97.0823 33.0152 97.8835 33.2544 99.0051 33.2544C100.047 33.2544 100.694 33.1813 100.948 33.0351C101.215 32.8889 101.422 32.6497 101.569 32.3174H105.635C105.368 33.5535 104.713 34.5237 103.672 35.2282C102.644 35.9193 101.088 36.2649 99.0051 36.2649C97.2959 36.2649 95.9139 36.0323 94.859 35.5671C93.8175 35.0886 93.0631 34.4174 92.5957 33.5535C92.1417 32.6896 91.9147 31.6661 91.9147 30.4832C91.9147 29.2472 92.1417 28.1972 92.5957 27.3332C93.0631 26.4693 93.8108 25.8114 94.839 25.3595C95.8805 24.9076 97.2292 24.6816 98.8849 24.6816C100.688 24.6816 102.023 24.9142 102.891 25.3794C103.759 25.8446 104.42 26.5092 104.874 27.3731C105.328 28.237 105.555 29.2671 105.555 30.4633V31.3006H95.9406ZM101.529 29.2671C101.449 28.9215 101.335 28.6291 101.188 28.3899C100.868 27.9247 100.1 27.6921 98.8849 27.6921C97.8033 27.6921 97.0289 27.9247 96.5615 28.3899C96.3345 28.6291 96.1609 28.9215 96.0408 29.2671H101.529Z" fill="white"/>
<path d="M110.575 30.7225V35.8861H106.689V26.8946L106.229 25.0604H110.114L110.535 26.7152C110.815 26.1703 111.156 25.7915 111.556 25.5788C112.077 25.2997 112.625 25.1402 113.199 25.1003C113.533 25.0737 113.826 25.0604 114.08 25.0604C114.347 25.0472 114.561 25.0405 114.721 25.0405C115.055 25.0405 115.456 25.0472 115.923 25.0604V27.9513H113.68C113.092 27.9513 112.578 28.0642 112.137 28.2902C111.697 28.5161 111.376 28.7354 111.176 28.9481C110.976 29.1475 110.822 29.4 110.715 29.7057C110.622 29.9981 110.575 30.337 110.575 30.7225Z" fill="white"/>
</svg>
